<svg xmlns="http://www.w3.org/2000/svg" width="72" height="72" viewBox="0 0 72 72">
  <g id="グループ_25" data-name="グループ 25" transform="translate(-239 -3512)">
    <circle id="楕円形_75" data-name="楕円形 75" cx="36" cy="36" r="36" transform="translate(239 3512)" fill="#fff"/>
    <g id="メールの無料アイコンその5" transform="translate(255 3459.465)">
      <path id="パス_2" data-name="パス 2" d="M35.7,74.535H4.713A4.713,4.713,0,0,0,0,79.247V98.47a4.713,4.713,0,0,0,4.713,4.713H35.7a4.713,4.713,0,0,0,4.713-4.713V79.247A4.713,4.713,0,0,0,35.7,74.535Zm2.463,25.2-.9,1.062L24.7,90.549,22.757,92.4a3.771,3.771,0,0,1-5.1,0l-1.946-1.851L3.148,100.8l-.9-1.062,11.8-10.776L2.173,77.805l.7-.93L20.207,90.008,37.539,76.875l.7.93L26.368,88.964Z" fill="#f78037"/>
    </g>
  </g>
</svg>
